# xmcd
#
# Track frame offsets: 
#        150
#        17722
#        36241
#        66043
#        91390
#        125042
#        140125
#        154676
#        171003
#        183147
#        198070
#
# Disc length: 2874 seconds
#
# Revision: 0
# Processed by: cddbd v1.5.1PL0 Copyright (c) Steve Scherf et al.
# Submitted via: ExactAudioCopy v0.95b3
#
DISCID=900b380b
DTITLE=Big Blues Revival - Мир от Майка
DYEAR=2005
DGENRE=Blues
TTITLE0=Я забываю
TTITLE1=Седьмое небо
TTITLE2=Гопники
TTITLE3=Дрянь
TTITLE4=Колокола
TTITLE5=Blues De Moscou
TTITLE6=Завтра меня здесь не будет
TTITLE7=Blues De Moscou (часть 2)
TTITLE8=Утро вдвоем
TTITLE9=Если будет дождь
TTITLE10=Все те мужчины
EXTD=
EXTT0=
EXTT1=
EXTT2=
EXTT3=
EXTT4=
EXTT5=
EXTT6=
EXTT7=
EXTT8=
EXTT9=
EXTT10=
PLAYORDER=
